<svg width="22" height="17" viewBox="0 0 22 17" fill="none" xmlns="http://www.w3.org/2000/svg">
<path fill-rule="evenodd" clip-rule="evenodd" d="M21.7143 16.357V14.9999H1.35714V0.0712891H0V16.357H21.7143ZM4.41072 13.982L8.82144 9.5713L11.2919 12.0417C11.4297 12.1796 11.6418 12.1796 11.7796 12.0417L18.4911 5.33022L19.774 6.61315C19.9967 6.83581 20.3572 6.67677 20.3572 6.37989V1.76772C20.3572 1.57687 20.2087 1.42843 20.0179 1.42843H15.4057C15.1088 1.42843 14.9498 1.78893 15.1725 2.01158L16.4554 3.29451L11.5357 8.21416L9.0653 5.74373C8.92747 5.60589 8.71541 5.60589 8.57758 5.74373L2.375 11.9463L4.41072 13.982Z" fill="#0064FF"/>
</svg>
