<svg width="21" height="16" viewBox="0 0 21 16" fill="none" xmlns="http://www.w3.org/2000/svg">
<path opacity="0.641764" fill-rule="evenodd" clip-rule="evenodd" d="M18.4627 15.9286C19.4582 15.9286 20.2728 15.1141 20.2728 14.1185V1.81007C20.2728 0.81453 19.4582 0 18.4627 0H1.81007C0.81453 0 0 0.81453 0 1.81007V14.1185C0 15.1141 0.81453 15.9286 1.81007 15.9286H18.4627ZM10.1477 10.1364H10.1251C9.4537 10.1364 8.57092 9.38831 7.95238 8.86417L7.95234 8.86413C7.8413 8.77004 7.73878 8.68317 7.64753 8.60913C6.14291 7.40996 4.62698 6.21079 3.11105 5.02294C2.09289 4.21972 1.44805 3.09974 1.44805 1.81007C1.44805 1.61775 1.61775 1.44805 1.81007 1.44805H18.4627C18.8435 1.44805 18.8337 1.83876 18.8265 2.12455C18.8256 2.16134 18.8247 2.19639 18.8247 2.22865C18.8247 3.19024 17.897 4.44598 17.1617 5.02294C15.6458 6.21079 14.1298 7.40996 12.6252 8.60913C12.534 8.68317 12.4314 8.77006 12.3204 8.86416L12.3204 8.86417C11.7018 9.38831 10.8191 10.1364 10.1477 10.1364ZM1.81007 14.4805H18.4627C18.655 14.4805 18.8247 14.3108 18.8247 14.1185V5.4302C18.5871 5.70171 18.3269 5.9506 18.0441 6.17685C16.4264 7.42127 14.7973 8.68832 13.2248 10.0006C12.3763 10.7133 11.3242 11.5844 10.1477 11.5844H10.1251C8.94852 11.5844 7.89642 10.7133 7.04795 10.0006C5.47545 8.68832 3.84639 7.42127 2.22865 6.17685C1.94582 5.9506 1.68562 5.70171 1.44805 5.4302V14.1185C1.44805 14.3108 1.61775 14.4805 1.81007 14.4805Z" fill="white"/>
</svg>
