<svg width="18" height="18" viewBox="0 0 18 18" fill="none" xmlns="http://www.w3.org/2000/svg">
<path opacity="0.641764" fill-rule="evenodd" clip-rule="evenodd" d="M9.23828 14.0625C9.10807 14.1927 8.95182 14.2578 8.76953 14.2578C8.58724 14.2578 8.43099 14.1927 8.30078 14.0625L5.25391 11.0156C5.1237 10.8854 5.05859 10.7292 5.05859 10.5469C5.05859 10.3646 5.1237 10.2051 5.25391 10.0684C5.38411 9.93164 5.54036 9.86328 5.72266 9.86328C5.90495 9.86328 6.06771 9.92839 6.21094 10.0586L8.10547 11.9531V0.683594C8.10547 0.488281 8.17057 0.325521 8.30078 0.195312C8.43099 0.0651042 8.58724 0 8.76953 0C8.95182 0 9.11133 0.0651042 9.24805 0.195312C9.38477 0.325521 9.45312 0.488281 9.45312 0.683594V11.9531L11.3477 10.0781C11.4779 9.9349 11.6341 9.86328 11.8164 9.86328C11.9987 9.86328 12.1582 9.93164 12.2949 10.0684C12.4316 10.2051 12.5 10.3646 12.5 10.5469C12.5 10.7292 12.4284 10.8854 12.2852 11.0156L9.23828 14.0625ZM17.1484 17.1387C16.9141 17.3796 16.6276 17.5 16.2891 17.5H1.21094C0.872396 17.5 0.585938 17.3828 0.351562 17.1484C0.117188 16.9141 0 16.6276 0 16.2891V11.9336C0 11.7513 0.0651042 11.5918 0.195312 11.4551C0.325521 11.3184 0.485026 11.25 0.673828 11.25C0.86263 11.25 1.02214 11.3184 1.15234 11.4551C1.28255 11.5918 1.34766 11.7513 1.34766 11.9336V15.7422C1.34766 15.8594 1.38672 15.957 1.46484 16.0352C1.54297 16.1133 1.64062 16.1523 1.75781 16.1523H15.7422C15.8594 16.1523 15.957 16.1133 16.0352 16.0352C16.1133 15.957 16.1523 15.8594 16.1523 15.7422V11.9336C16.1523 11.7513 16.2174 11.5918 16.3477 11.4551C16.4779 11.3184 16.6374 11.25 16.8262 11.25C17.015 11.25 17.1745 11.3216 17.3047 11.4648C17.4349 11.5951 17.5 11.7513 17.5 11.9336V16.2891C17.5 16.6146 17.3828 16.8978 17.1484 17.1387Z" fill="white"/>
</svg>
