<svg width="20" height="21" viewBox="0 0 20 21" fill="none" xmlns="http://www.w3.org/2000/svg">
<path opacity="0.641764" fill-rule="evenodd" clip-rule="evenodd" d="M9.90234 20.2697C10.0065 20.2697 10.127 20.2632 10.2637 20.2502C10.4004 20.2372 10.5339 20.2111 10.6641 20.1721L18.9258 17.926C19.2253 17.8479 19.4792 17.6753 19.6875 17.4084C19.8958 17.1415 20 16.8518 20 16.5393V1.34395C20 0.979362 19.8568 0.686393 19.5703 0.465039C19.2839 0.243685 18.9583 0.185091 18.5938 0.289258L10.332 2.51582C10.2279 2.54186 10.0814 2.55488 9.89258 2.55488C9.70378 2.55488 9.55729 2.54186 9.45312 2.51582L1.40625 0.289258C1.04167 0.185091 0.716146 0.243685 0.429688 0.465039C0.143229 0.686393 0 0.979362 0 1.34395V16.5393C0 16.8518 0.104167 17.1415 0.3125 17.4084C0.520833 17.6753 0.77474 17.8544 1.07422 17.9455L9.12109 20.1721C9.22526 20.1981 9.3457 20.2209 9.48242 20.2404C9.61914 20.26 9.75911 20.2697 9.90234 20.2697ZM9.375 18.9416L1.38672 16.7346C1.36068 16.7215 1.33138 16.6955 1.29883 16.6564C1.26628 16.6174 1.25 16.5783 1.25 16.5393V1.53926L9.12109 3.72676C9.16016 3.72676 9.20247 3.73327 9.24805 3.74629C9.29362 3.75931 9.33594 3.76582 9.375 3.76582V18.9416ZM10.625 3.72676V18.883L18.5938 16.7346C18.6198 16.7215 18.6523 16.6955 18.6914 16.6564C18.7305 16.6174 18.75 16.5783 18.75 16.5393V1.53926L10.6641 3.72676H10.625ZM12.627 7.39863C12.6595 7.39863 12.6888 7.39212 12.7148 7.3791L17.0898 6.14863C17.2461 6.09655 17.3665 5.99564 17.4512 5.8459C17.5358 5.69616 17.5586 5.54316 17.5195 5.38691C17.4674 5.21764 17.3665 5.09069 17.2168 5.00605C17.0671 4.92142 16.9076 4.89863 16.7383 4.9377L12.3633 6.16816C12.207 6.22025 12.0866 6.32116 12.002 6.4709C11.9173 6.62064 11.8945 6.78014 11.9336 6.94941C11.9727 7.09264 12.0508 7.20332 12.168 7.28145C12.2852 7.35957 12.4089 7.39863 12.5391 7.39863H12.627ZM7.91016 7.28145C7.79297 7.35957 7.66927 7.39863 7.53906 7.39863H7.45117C7.41862 7.39863 7.38932 7.39212 7.36328 7.3791L2.98828 6.14863C2.83203 6.09655 2.71159 5.99564 2.62695 5.8459C2.54232 5.69616 2.51953 5.54316 2.55859 5.38691C2.61068 5.21764 2.71159 5.09069 2.86133 5.00605C3.01107 4.92142 3.17057 4.89863 3.33984 4.9377L7.71484 6.16816C7.87109 6.22025 7.99154 6.32116 8.07617 6.4709C8.16081 6.62064 8.18359 6.78014 8.14453 6.94941C8.10547 7.09264 8.02734 7.20332 7.91016 7.28145ZM12.627 11.1486C12.6595 11.1486 12.6888 11.1421 12.7148 11.1291L17.0898 9.89863C17.2461 9.84655 17.3665 9.74564 17.4512 9.5959C17.5358 9.44616 17.5586 9.29316 17.5195 9.13691C17.4674 8.96764 17.3665 8.84069 17.2168 8.75605C17.0671 8.67142 16.9076 8.64863 16.7383 8.6877L12.3633 9.91816C12.207 9.97025 12.0866 10.0712 12.002 10.2209C11.9173 10.3706 11.8945 10.5301 11.9336 10.6994C11.9727 10.8426 12.0508 10.9533 12.168 11.0314C12.2852 11.1096 12.4089 11.1486 12.5391 11.1486H12.627ZM7.91016 11.0314C7.79297 11.1096 7.66927 11.1486 7.53906 11.1486H7.45117C7.41862 11.1486 7.38932 11.1421 7.36328 11.1291L2.98828 9.89863C2.83203 9.84655 2.71159 9.74564 2.62695 9.5959C2.54232 9.44616 2.51953 9.29316 2.55859 9.13691C2.61068 8.96764 2.71159 8.84069 2.86133 8.75605C3.01107 8.67142 3.17057 8.64863 3.33984 8.6877L7.71484 9.91816C7.87109 9.97025 7.99154 10.0712 8.07617 10.2209C8.16081 10.3706 8.18359 10.5301 8.14453 10.6994C8.10547 10.8426 8.02734 10.9533 7.91016 11.0314ZM12.627 14.8986C12.6595 14.8986 12.6888 14.8921 12.7148 14.8791L17.0898 13.6486C17.2461 13.5965 17.3665 13.4956 17.4512 13.3459C17.5358 13.1962 17.5586 13.0432 17.5195 12.8869C17.4674 12.7176 17.3665 12.5907 17.2168 12.5061C17.0671 12.4214 16.9076 12.3986 16.7383 12.4377L12.3633 13.6682C12.207 13.7202 12.0866 13.8212 12.002 13.9709C11.9173 14.1206 11.8945 14.2801 11.9336 14.4494C11.9727 14.5926 12.0508 14.7033 12.168 14.7814C12.2852 14.8596 12.4089 14.8986 12.5391 14.8986H12.627ZM7.91016 14.7814C7.79297 14.8596 7.66927 14.8986 7.53906 14.8986H7.45117C7.41862 14.8986 7.38932 14.8921 7.36328 14.8791L2.98828 13.6486C2.83203 13.5965 2.71159 13.4956 2.62695 13.3459C2.54232 13.1962 2.51953 13.0432 2.55859 12.8869C2.61068 12.7176 2.71159 12.5907 2.86133 12.5061C3.01107 12.4214 3.17057 12.3986 3.33984 12.4377L7.71484 13.6682C7.87109 13.7202 7.99154 13.8212 8.07617 13.9709C8.16081 14.1206 8.18359 14.2801 8.14453 14.4494C8.10547 14.5926 8.02734 14.7033 7.91016 14.7814Z" fill="white"/>
</svg>
