<svg width="17" height="16" viewBox="0 0 17 16" fill="none" xmlns="http://www.w3.org/2000/svg">
<path fill-rule="evenodd" clip-rule="evenodd" d="M15.9548 15.7048C15.83 15.8183 15.6825 15.875 15.5123 15.875C15.3421 15.875 15.2002 15.8183 15.0868 15.7048L11.5806 12.1987C10.3665 13.1972 8.97656 13.6964 7.41071 13.6964C5.60658 13.6964 4.06627 13.0582 2.78976 11.7817C1.51325 10.5052 0.875 8.96484 0.875 7.16071C0.875 5.35658 1.51325 3.81627 2.78976 2.53976C4.06627 1.26325 5.60658 0.625 7.41071 0.625C9.21484 0.625 10.7552 1.26325 12.0317 2.53976C13.3082 3.81627 13.9464 5.35658 13.9464 7.16071C13.9464 8.72656 13.4472 10.1165 12.4487 11.3306L15.9548 14.8198C16.0683 14.9446 16.125 15.0921 16.125 15.2623C16.125 15.4325 16.0683 15.58 15.9548 15.7048ZM5.35128 12.0625C5.99805 12.3348 6.68452 12.471 7.41071 12.471C8.1369 12.471 8.82338 12.3348 9.47015 12.0625C10.1056 11.7902 10.6701 11.4072 11.1636 10.9136C11.6572 10.4201 12.0402 9.85556 12.3125 9.22015C12.5848 8.57338 12.721 7.8869 12.721 7.16071C12.721 6.43452 12.5848 5.74805 12.3125 5.10128C12.0402 4.46587 11.6572 3.90137 11.1636 3.40778C10.6701 2.9142 10.1056 2.53125 9.47015 2.25893C8.82338 1.98661 8.1369 1.85045 7.41071 1.85045C6.68452 1.85045 5.99805 1.98661 5.35128 2.25893C4.71587 2.53125 4.15137 2.9142 3.65778 3.40778C3.1642 3.90137 2.78692 4.46587 2.52595 5.10128C2.24228 5.74805 2.10045 6.43452 2.10045 7.16071C2.10045 7.8869 2.24228 8.57338 2.52595 9.22015C2.78692 9.85556 3.1642 10.4201 3.65778 10.9136C4.15137 11.4072 4.71587 11.7902 5.35128 12.0625Z" fill="#8A91AC"/>
</svg>
