<svg width="20" height="20" viewBox="0 0 20 20" fill="none" xmlns="http://www.w3.org/2000/svg">
<path opacity="0.641764" fill-rule="evenodd" clip-rule="evenodd" d="M15.0684 19.5273C15.0098 19.5404 14.9544 19.5469 14.9023 19.5469C14.7982 19.5469 14.6973 19.5208 14.5996 19.4688C14.502 19.4167 14.4271 19.3451 14.375 19.2539C14.2839 19.0977 14.2578 18.9382 14.2969 18.7754C14.3359 18.6126 14.4271 18.4857 14.5703 18.3945C15.1172 18.056 15.6152 17.6686 16.0645 17.2324C16.5137 16.7962 16.9141 16.3242 17.2656 15.8164L16.6406 15.4453C16.4844 15.3672 16.3867 15.2435 16.3477 15.0742C16.3086 14.9049 16.3281 14.7487 16.4062 14.6055C16.4974 14.4492 16.6243 14.3483 16.7871 14.3027C16.9499 14.2572 17.1094 14.2799 17.2656 14.3711L17.8906 14.7227C18.125 14.2409 18.3105 13.7363 18.4473 13.209C18.584 12.6816 18.6719 12.138 18.7109 11.5781H18.0273C17.8581 11.5781 17.7116 11.5163 17.5879 11.3926C17.4642 11.2689 17.4023 11.1224 17.4023 10.9531C17.4023 10.7839 17.4642 10.6374 17.5879 10.5137C17.7116 10.39 17.8581 10.3281 18.0273 10.3281H18.7109C18.6719 9.75521 18.5775 9.19857 18.4277 8.6582C18.278 8.11784 18.0859 7.60677 17.8516 7.125L17.2656 7.45703C17.2135 7.48307 17.1615 7.5026 17.1094 7.51562C17.0573 7.52865 17.0052 7.53516 16.9531 7.53516C16.849 7.53516 16.748 7.50911 16.6504 7.45703C16.5527 7.40495 16.4714 7.32682 16.4062 7.22266C16.3281 7.07943 16.3086 6.92318 16.3477 6.75391C16.3867 6.58464 16.4844 6.46094 16.6406 6.38281L17.2266 6.03125C16.9141 5.57552 16.5625 5.15234 16.1719 4.76172C15.7812 4.37109 15.3581 4.01953 14.9023 3.70703L14.5703 4.29297C14.5052 4.39714 14.4238 4.47526 14.3262 4.52734C14.2285 4.57943 14.1276 4.60547 14.0234 4.60547C13.9714 4.60547 13.9193 4.59896 13.8672 4.58594C13.8151 4.57292 13.763 4.55339 13.7109 4.52734C13.5677 4.4362 13.4733 4.30924 13.4277 4.14648C13.3822 3.98372 13.3984 3.82422 13.4766 3.66797L13.8281 3.08203C13.3333 2.84766 12.8158 2.6556 12.2754 2.50586C11.735 2.35612 11.1784 2.26172 10.6055 2.22266V3.00391C10.6055 3.1862 10.5469 3.33594 10.4297 3.45312C10.3125 3.57031 10.1628 3.62891 9.98047 3.62891C9.8112 3.62891 9.66471 3.57031 9.54102 3.45312C9.41732 3.33594 9.35547 3.1862 9.35547 3.00391V2.22266C8.79557 2.27474 8.25195 2.36914 7.72461 2.50586C7.19727 2.64258 6.69271 2.82812 6.21094 3.0625L6.5625 3.66797C6.65365 3.82422 6.67643 3.98372 6.63086 4.14648C6.58529 4.30924 6.49089 4.4362 6.34766 4.52734C6.29557 4.55339 6.24349 4.57292 6.19141 4.58594C6.13932 4.59896 6.08724 4.60547 6.03516 4.60547C5.91797 4.60547 5.81055 4.57943 5.71289 4.52734C5.61523 4.47526 5.54036 4.39714 5.48828 4.29297L5.13672 3.6875C4.66797 4 4.23828 4.35156 3.84766 4.74219C3.45703 5.13281 3.10547 5.55599 2.79297 6.01172L3.41797 6.38281C3.5612 6.46094 3.6556 6.58464 3.70117 6.75391C3.74674 6.92318 3.72396 7.07943 3.63281 7.22266C3.58073 7.32682 3.50586 7.40495 3.4082 7.45703C3.31055 7.50911 3.20964 7.53516 3.10547 7.53516C3.05339 7.53516 2.99805 7.52865 2.93945 7.51562C2.88086 7.5026 2.83203 7.48307 2.79297 7.45703L2.16797 7.08594C1.92057 7.58073 1.72201 8.09831 1.57227 8.63867C1.42253 9.17904 1.32812 9.73568 1.28906 10.3086H1.97266C2.15495 10.3086 2.30469 10.3704 2.42188 10.4941C2.53906 10.6178 2.59766 10.7643 2.59766 10.9336C2.59766 11.1029 2.53906 11.2493 2.42188 11.373C2.30469 11.4967 2.15495 11.5586 1.97266 11.5586H1.28906C1.32812 12.1185 1.41927 12.6686 1.5625 13.209C1.70573 13.7493 1.89453 14.2604 2.12891 14.7422L2.79297 14.3711C2.9362 14.2799 3.09245 14.2572 3.26172 14.3027C3.43099 14.3483 3.55469 14.4492 3.63281 14.6055C3.72396 14.7487 3.74674 14.9049 3.70117 15.0742C3.6556 15.2435 3.5612 15.3672 3.41797 15.4453L2.75391 15.8359C3.09245 16.3307 3.47982 16.7897 3.91602 17.2129C4.35221 17.6361 4.83724 18.0169 5.37109 18.3555C5.51432 18.4466 5.60547 18.5768 5.64453 18.7461C5.68359 18.9154 5.65755 19.0716 5.56641 19.2148C5.47526 19.3581 5.34505 19.4492 5.17578 19.4883C5.00651 19.5273 4.85026 19.5013 4.70703 19.4102C3.96484 18.9544 3.30404 18.4173 2.72461 17.7988C2.14518 17.1803 1.65365 16.5065 1.25 15.7773C0.846354 15.0482 0.540365 14.2767 0.332031 13.4629C0.123698 12.6491 0.0195312 11.8125 0.0195312 10.9531C0.0195312 9.57292 0.279948 8.27734 0.800781 7.06641C1.32161 5.85547 2.03451 4.79753 2.93945 3.89258C3.8444 2.98763 4.90234 2.27148 6.11328 1.74414C7.32422 1.2168 8.61979 0.953125 10 0.953125C11.3802 0.953125 12.6758 1.2168 13.8867 1.74414C15.0977 2.27148 16.1556 2.98763 17.0605 3.89258C17.9655 4.79753 18.6784 5.85547 19.1992 7.06641C19.7201 8.27734 19.9805 9.56641 19.9805 10.9336C19.9805 11.819 19.873 12.6719 19.6582 13.4922C19.4434 14.3125 19.1309 15.0872 18.7207 15.8164C18.3105 16.5456 17.8125 17.2194 17.2266 17.8379C16.6406 18.4564 15.9766 18.9935 15.2344 19.4492C15.1823 19.4883 15.127 19.5143 15.0684 19.5273ZM10.8594 11.832C10.612 12.0794 10.319 12.2031 9.98047 12.2031C9.64193 12.2031 9.34896 12.0794 9.10156 11.832C8.85417 11.5846 8.73047 11.2917 8.73047 10.9531C8.73047 10.6146 8.85417 10.3216 9.10156 10.0742C9.34896 9.82682 9.64193 9.70312 9.98047 9.70312C10.0977 9.70312 10.2051 9.7194 10.3027 9.75195C10.4004 9.7845 10.4948 9.82682 10.5859 9.87891L13.9844 7.90625C14.1406 7.82812 14.3001 7.81185 14.4629 7.85742C14.6257 7.90299 14.7526 7.9974 14.8438 8.14062C14.9219 8.29688 14.9414 8.45638 14.9023 8.61914C14.8633 8.7819 14.7656 8.90885 14.6094 9L11.2305 10.9531L11.2229 11.0954C11.1926 11.3744 11.0714 11.62 10.8594 11.832Z" fill="white"/>
</svg>
