<svg width="16" height="22" viewBox="0 0 16 22" fill="none" xmlns="http://www.w3.org/2000/svg">
<path opacity="0.641764" fill-rule="evenodd" clip-rule="evenodd" d="M1.70213 1.02128H15.6596C15.8476 1.02128 16 1.1737 16 1.3617V12.2553C16 12.4433 15.8476 12.5957 15.6596 12.5957H1.70213V20.766C1.70213 20.954 1.5497 21.1064 1.3617 21.1064H0.340426C0.152426 21.1064 0 20.954 0 20.766V0.340426C0 0.152426 0.152426 0 0.340426 0H1.3617C1.5497 0 1.70213 0.152426 1.70213 0.340426V1.02128ZM0.680851 20.4255H1.02128V0.680851H0.680851V20.4255ZM15.3191 5.10638H11.9149V1.70213H15.3191V5.10638ZM11.9149 8.51064V5.10638H8.51064V1.70213H5.10638V5.10638H1.70213V8.51064H5.10638V11.9149H8.51064V8.51064H11.9149ZM11.9149 8.51064H15.3191V11.9149H11.9149V8.51064ZM8.51064 8.51064H5.10638V5.10638H8.51064V8.51064Z" fill="white"/>
</svg>
