<svg width="12" height="8" viewBox="0 0 12 8" fill="none" xmlns="http://www.w3.org/2000/svg">
<path d="M3.92577 0.0944267L4.00677 0.166425L4.60336 0.822015C4.78963 1.0267 4.77822 1.3427 4.57769 1.53343L3.47836 2.57708L11.491 2.57768C11.7721 2.57768 12 2.80558 12 3.0867V4.10472C12 4.38584 11.7721 4.61373 11.491 4.61373L3.55573 4.61313L4.632 5.68467C4.83056 5.88219 4.83224 6.203 4.63578 6.4026L4.01255 7.03578C3.83726 7.21386 3.56315 7.23567 3.36369 7.09981L3.29005 7.03882L0.149269 3.90123C-0.0275154 3.72462 -0.0472874 3.45035 0.090041 3.2519L0.15434 3.17602L3.27563 0.143908C3.45487 -0.0302072 3.72941 -0.045863 3.92577 0.0944267Z" fill="#8A91AC"/>
</svg>
