<svg width="20" height="20" viewBox="0 0 20 20" fill="none" xmlns="http://www.w3.org/2000/svg">
<path opacity="0.641764" fill-rule="evenodd" clip-rule="evenodd" d="M18.75 19.6055C19.0885 19.6055 19.3815 19.4818 19.6289 19.2344C19.8763 18.987 20 18.694 20 18.3555V5.23047C20 4.89193 19.8763 4.59896 19.6289 4.35156C19.3815 4.10417 19.0885 3.98047 18.75 3.98047H13.75V2.76953C13.75 2.26172 13.5677 1.82227 13.2031 1.45117C12.8385 1.08008 12.3958 0.894531 11.875 0.894531H8.125C7.60417 0.894531 7.16146 1.08008 6.79688 1.45117C6.43229 1.82227 6.25 2.26172 6.25 2.76953V3.98047H1.25C0.911458 3.98047 0.61849 4.10417 0.371094 4.35156C0.123698 4.59896 0 4.89193 0 5.23047V18.3555C0 18.694 0.123698 18.987 0.371094 19.2344C0.61849 19.4818 0.911458 19.6055 1.25 19.6055H18.75ZM12.5 3.98047H7.5V2.76953C7.5 2.60026 7.56185 2.45378 7.68555 2.33008C7.80924 2.20638 7.95573 2.14453 8.125 2.14453H11.875C12.0573 2.14453 12.207 2.20638 12.3242 2.33008C12.4414 2.45378 12.5 2.60026 12.5 2.76953V3.98047ZM1.25 9.625H8.125V8.98047C8.125 8.64193 8.24544 8.34896 8.48633 8.10156C8.72721 7.85417 9.02344 7.73047 9.375 7.73047H10.625C10.9635 7.73047 11.2565 7.85417 11.5039 8.10156C11.7513 8.34896 11.875 8.64193 11.875 8.98047V9.625H18.75V5.23047H1.25V9.625ZM10.625 12.125H9.375V8.98047H10.625V12.125ZM1.25 18.3555H18.75V10.875H11.875V12.125C11.875 12.4766 11.7513 12.7728 11.5039 13.0137C11.2565 13.2546 10.9635 13.375 10.625 13.375H9.375C9.02344 13.375 8.72721 13.2546 8.48633 13.0137C8.24544 12.7728 8.125 12.4766 8.125 12.125V10.875H1.25V18.3555Z" fill="white"/>
</svg>
